<?xml version="1.0" encoding="iso-8859-1"?>
<!-- Generator: Adobe Illustrator 14.0.0, SVG Export Plug-In . SVG Version: 6.00 Build 43363)  -->
<!DOCTYPE svg PUBLIC "-//W3C//DTD SVG 1.1//EN" "http://www.w3.org/Graphics/SVG/1.1/DTD/svg11.dtd">
<svg version="1.1" id="Layer_1" xmlns="http://www.w3.org/2000/svg" xmlns:xlink="http://www.w3.org/1999/xlink" x="0px" y="0px"
	 width="32px" height="32px" viewBox="0 0 32 32" style="enable-background:new 0 0 32 32;" xml:space="preserve">
<g id="icon-SMS">
	<rect style="fill:none;" width="32" height="32"/>
	<g>
		<path style="opacity:0.15;fill:#ACACAC;enable-background:new    ;" d="M9.219,5.751c-1.139,0.213,0.307,3.54-1.708,5.501
			c-1.583,1.541-3.163,3.637-3.137,6.008c0.063,5.5,8.354,5.314,8.679,5.283c0.321-0.033,0.25,2.631,0.349,2.955
			s2.661-2.404,3.286-2.695c0.625-0.293,3.948-1.844,4.073-5.385c0.027-0.813,6.875,0.084,6.875,0.084s0.375-10.335-0.417-12.001
			C26.736,4.485,9.219,5.751,9.219,5.751z"/>
		<g id="appicon-SMS_3_" style="opacity:0.6;">
			<g>
				<path style="fill:none;stroke:#000000;stroke-width:2;" d="M8.206,12.252c0.002-3.289,0.053-5.266,0.482-5.571
					c0.439-0.314,3.655-0.281,9.351-0.281c5.693,0,9.099,0,9.329,0.281c0.259,0.312,0.47,1.851,0.47,5.637
					c0,3.788-0.175,5.407-0.47,5.778c-0.234,0.293-2.316,0.453-6.273,0.502"/>
				<path style="fill:none;stroke:#000000;" d="M8.798,6.958c0,0,3.819,5.3,9.187,7.968c0.15,0.076,5.135-3.191,9.186-7.935"/>
			</g>
			<path style="fill:none;stroke:#000000;stroke-linecap:round;stroke-linejoin:round;" d="M19.955,13.795
				c1.097,1.258,1.558,3.099,0.898,5.717c-0.426,1.699-3.328,3.662-4.166,4.291s-2.674,2.609-3,2.959
				c-0.326,0.349-0.333-0.076-0.286-0.264c0.046-0.186,0.233-2.094,0.233-2.396s-0.351-0.56-0.582-0.56
				c-0.233,0-2.389-0.197-3.166-0.303c-1.373-0.186-5.675-1.537-5.726-5.586c-0.046-3.607,2.821-6.193,8.599-6.236"/>
		</g>
		<g>
			<path style="fill:none;stroke:#BEBEBE;stroke-width:2;" d="M8.206,11.252c0.002-3.289,0.053-5.266,0.482-5.571
				c0.439-0.314,3.655-0.281,9.351-0.281c5.693,0,9.099,0,9.329,0.281c0.259,0.312,0.47,1.851,0.47,5.637
				c0,3.788-0.175,5.407-0.47,5.778c-0.234,0.293-2.316,0.453-6.273,0.502"/>
			<path style="fill:none;stroke:#BEBEBE;" d="M8.798,5.958c0,0,3.819,5.3,9.187,7.968c0.15,0.076,5.135-3.191,9.186-7.935"/>
		</g>
		<path style="fill:none;stroke:#BEBEBE;stroke-linecap:round;stroke-linejoin:round;" d="M19.955,12.795
			c1.097,1.258,1.558,3.099,0.898,5.717c-0.426,1.699-3.328,3.662-4.166,4.291s-2.674,2.609-3,2.959
			c-0.326,0.349-0.333-0.076-0.286-0.264c0.046-0.186,0.233-2.094,0.233-2.396s-0.351-0.56-0.582-0.56
			c-0.233,0-2.389-0.197-3.166-0.303c-1.373-0.186-5.675-1.537-5.726-5.586c-0.046-3.607,2.821-6.193,8.599-6.236"/>
	</g>
</g>
</svg>
