<?xml version="1.0" encoding="utf-8"?>
<!-- Generator: Adobe Illustrator 14.0.0, SVG Export Plug-In . SVG Version: 6.00 Build 43363)  -->
<!DOCTYPE svg PUBLIC "-//W3C//DTD SVG 1.1//EN" "http://www.w3.org/Graphics/SVG/1.1/DTD/svg11.dtd">
<svg version="1.1" id="duisms-icons-layer" xmlns="http://www.w3.org/2000/svg" xmlns:xlink="http://www.w3.org/1999/xlink" x="0px"
	 y="0px" width="757.335px" height="486.167px" viewBox="-107.665 0 757.335 486.167"
	 enable-background="new -107.665 0 757.335 486.167" xml:space="preserve">
<g id="duisms-icons">
	<rect x="-106.665" fill="#353535" width="756.335" height="485.167"/>
	<g id="icon-alert">
		<g opacity="0.4">
			<path id="path11784_2_" fill="none" stroke="#010101" stroke-width="1.8134" stroke-linecap="round" d="M506.835,339.144
				c0-6.523,5.283-11.829,11.826-11.829c6.506,0,11.813,5.287,11.813,11.829c0,6.504-5.277,11.815-11.813,11.815
				C512.118,350.96,506.835,345.669,506.835,339.144L506.835,339.144z"/>
		</g>
		<circle opacity="0.15" fill="#ABABAB" enable-background="new    " cx="518.653" cy="338.218" r="11.334"/>
		<g>
			<path id="path11784_1_" fill="none" stroke="#EA6156" stroke-width="1.8134" d="M506.835,338.266
				c0-6.523,5.283-11.83,11.826-11.83c6.506,0,11.813,5.291,11.813,11.83c0,6.502-5.277,11.818-11.813,11.818
				C512.118,350.085,506.835,344.794,506.835,338.266L506.835,338.266z"/>
			<path id="path11786_1_" fill="none" stroke="#EA6156" stroke-width="3.6268" stroke-linecap="round" d="M518.653,332.869v5.972"
				/>
			<path id="path11788_1_" fill="none" stroke="#EA6156" stroke-width="3.6268" stroke-linecap="round" d="M518.653,344.037v0.065"
				/>
		</g>
	</g>
	<g id="icon-home-pressed">
		<g>
			<g opacity="0.4">
				<path d="M20.664,116.163c0.236,0,0.473-0.091,0.654-0.272c0.361-0.362,0.361-0.946,0-1.308l-6.898-6.896
					c-0.086-0.089-0.189-0.157-0.301-0.204c-0.229-0.091-0.481-0.091-0.709,0c-0.112,0.046-0.214,0.116-0.302,0.204l-6.9,6.896
					c-0.361,0.362-0.361,0.946,0,1.308c0.181,0.182,0.417,0.272,0.655,0.272c0.236,0,0.473-0.091,0.654-0.272l5.323-5.32v15.887
					c0,0.511,0.414,0.925,0.924,0.925c0.511,0,0.925-0.415,0.925-0.925V110.57l5.322,5.32
					C20.189,116.072,20.425,116.163,20.664,116.163z"/>
				<path d="M30.928,94.021c-0.246-0.735-0.851-1.285-1.65-1.476c-0.484-0.105-3.51-0.629-15.514-0.629
					c-11.806,0-14.969,0.519-15.545,0.637c-0.728,0.174-1.323,0.693-1.568,1.33c-0.31,0.742-0.994,5.278-0.994,15.469
					c0,10.691,0.625,15.049,0.999,15.957c0.271,0.643,0.812,1.115,1.486,1.301c0.369,0.101,2.504,0.555,11.354,0.668
					c0.002,0,0.002,0,0.004,0c0.498-0.004,0.902-0.465,0.902-0.965v-1.829c0-0.498-0.404-0.903-0.902-0.907
					c-5.605-0.07-8.326-0.281-9.531-0.415c-0.226-1.559-0.611-5.448-0.611-13.813c0-7.937,0.406-11.589,0.635-13.314
					c1.588-0.165,5.432-0.421,13.77-0.421c8.402,0,12.22,0.26,13.769,0.418c0.229,1.71,0.63,5.273,0.63,12.788
					c0,8.519-0.396,12.664-0.621,14.343c-1.239,0.139-3.966,0.342-9.52,0.415c-0.499,0-0.906,0.407-0.906,0.907v1.829
					c0,0.499,0.408,0.965,0.906,0.965c8.714-0.114,10.947-0.563,11.369-0.668c0.678-0.186,1.239-0.688,1.501-1.342
					c0.252-0.635,0.971-5.021,0.971-16.446C31.861,98.983,31.16,94.617,30.928,94.021z"/>
			</g>
			<rect x="-1.605" y="92.857" opacity="0.15" fill="#ACACAC" enable-background="new    " width="30.965" height="30.012"/>
			<g>
				<path fill="#FFFFFF" d="M20.664,114.258c0.236,0,0.473-0.092,0.654-0.271c0.361-0.361,0.361-0.946,0-1.309l-6.898-6.897
					c-0.086-0.088-0.189-0.155-0.301-0.202c-0.229-0.092-0.481-0.092-0.709,0c-0.112,0.047-0.214,0.114-0.302,0.202l-6.9,6.897
					c-0.361,0.363-0.361,0.948,0,1.309c0.181,0.179,0.417,0.271,0.655,0.271c0.236,0,0.473-0.092,0.654-0.271l5.323-5.321v15.887
					c0,0.512,0.414,0.925,0.924,0.925c0.511,0,0.925-0.414,0.925-0.925v-15.887l5.322,5.321
					C20.189,114.166,20.425,114.258,20.664,114.258z"/>
				<path fill="#FFFFFF" d="M30.928,92.117c-0.246-0.734-0.851-1.283-1.65-1.476c-0.484-0.105-3.51-0.629-15.514-0.629
					c-11.806,0-14.969,0.518-15.545,0.635c-0.728,0.176-1.323,0.695-1.568,1.332c-0.31,0.743-0.994,5.277-0.994,15.467
					c0,10.693,0.625,15.05,0.999,15.956c0.271,0.643,0.812,1.119,1.486,1.303c0.369,0.101,2.504,0.557,11.354,0.668
					c0.002,0,0.002,0,0.004,0c0.498-0.003,0.902-0.465,0.902-0.965v-1.828c0-0.498-0.404-0.902-0.902-0.906
					c-5.605-0.072-8.326-0.282-9.531-0.417c-0.226-1.557-0.611-5.445-0.611-13.812c0-7.936,0.406-11.589,0.635-13.314
					c1.588-0.163,5.432-0.421,13.77-0.421c8.402,0,12.22,0.261,13.769,0.418c0.229,1.71,0.63,5.275,0.63,12.789
					c0,8.518-0.396,12.664-0.621,14.34c-1.239,0.139-3.966,0.343-9.52,0.417c-0.499,0-0.906,0.407-0.906,0.906v1.827
					c0,0.5,0.408,0.966,0.906,0.966c8.714-0.113,10.947-0.563,11.369-0.668c0.678-0.186,1.239-0.687,1.501-1.342
					c0.252-0.634,0.971-5.021,0.971-16.444C31.861,97.078,31.16,92.711,30.928,92.117z"/>
			</g>
		</g>
		<rect x="-6.409" y="88.531" fill="none" width="40.334" height="40.334"/>
	</g>
	<g id="icon-home-inactive">
		<g>
			<g opacity="0.4">
				<path d="M20.663,223.406c0.236,0,0.473-0.092,0.654-0.274c0.361-0.36,0.361-0.945,0-1.308l-6.898-6.896
					c-0.085-0.089-0.189-0.157-0.301-0.204c-0.229-0.091-0.481-0.091-0.709,0c-0.111,0.047-0.214,0.117-0.301,0.204l-6.9,6.896
					c-0.361,0.362-0.361,0.947,0,1.308c0.18,0.183,0.417,0.274,0.655,0.274c0.236,0,0.474-0.092,0.655-0.274l5.323-5.319V233.7
					c0,0.51,0.414,0.925,0.924,0.925c0.511,0,0.925-0.415,0.925-0.925v-15.888l5.322,5.319
					C20.188,223.314,20.425,223.406,20.663,223.406z"/>
				<path d="M30.927,201.262c-0.246-0.733-0.851-1.283-1.65-1.476c-0.484-0.104-3.51-0.629-15.514-0.629
					c-11.806,0-14.969,0.52-15.544,0.637c-0.729,0.175-1.324,0.694-1.568,1.33c-0.31,0.743-0.994,5.279-0.994,15.47
					c0,10.691,0.624,15.049,0.999,15.957c0.271,0.643,0.813,1.115,1.486,1.301c0.37,0.101,2.505,0.555,11.355,0.668
					c0.002,0,0.002,0,0.004,0c0.497-0.003,0.902-0.465,0.902-0.965v-1.829c0-0.497-0.406-0.903-0.902-0.907
					c-5.605-0.07-8.326-0.28-9.532-0.415c-0.225-1.558-0.611-5.446-0.611-13.813c0-7.936,0.406-11.588,0.635-13.313
					c1.588-0.165,5.432-0.422,13.77-0.422c8.402,0,12.22,0.26,13.769,0.418c0.229,1.711,0.63,5.273,0.63,12.788
					c0,8.519-0.396,12.664-0.62,14.342c-1.24,0.14-3.967,0.343-9.521,0.415c-0.499,0-0.906,0.408-0.906,0.907v1.829
					c0,0.498,0.408,0.965,0.906,0.965c8.714-0.113,10.947-0.563,11.369-0.668c0.678-0.186,1.239-0.688,1.501-1.342
					c0.252-0.634,0.972-5.021,0.972-16.446C31.86,206.226,31.16,201.858,30.927,201.262z"/>
			</g>
			<rect x="-1.606" y="200.099" opacity="0.15" fill="#ACACAC" enable-background="new    " width="30.965" height="30.013"/>
			<g>
				<path fill="#D6D6D6" d="M20.663,221.5c0.236,0,0.473-0.092,0.654-0.271c0.361-0.361,0.361-0.945,0-1.308l-6.898-6.897
					c-0.085-0.089-0.189-0.156-0.301-0.202c-0.229-0.093-0.481-0.093-0.709,0c-0.111,0.046-0.214,0.113-0.301,0.202l-6.9,6.897
					c-0.361,0.362-0.361,0.946,0,1.308c0.18,0.18,0.417,0.271,0.655,0.271c0.236,0,0.474-0.092,0.655-0.271l5.323-5.32v15.887
					c0,0.512,0.414,0.925,0.924,0.925c0.511,0,0.925-0.413,0.925-0.925v-15.887l5.322,5.32
					C20.188,221.408,20.425,221.5,20.663,221.5z"/>
				<path fill="#D6D6D6" d="M30.927,199.359c-0.246-0.735-0.851-1.284-1.65-1.476c-0.484-0.106-3.51-0.629-15.514-0.629
					c-11.806,0-14.969,0.518-15.544,0.635c-0.729,0.177-1.324,0.694-1.568,1.332c-0.31,0.742-0.994,5.277-0.994,15.467
					c0,10.692,0.624,15.05,0.999,15.956c0.271,0.643,0.813,1.118,1.486,1.303c0.37,0.101,2.505,0.557,11.355,0.668
					c0.002,0,0.002,0,0.004,0c0.497-0.004,0.902-0.465,0.902-0.966v-1.828c0-0.498-0.406-0.901-0.902-0.906
					c-5.605-0.071-8.326-0.282-9.532-0.418c-0.225-1.556-0.611-5.444-0.611-13.812c0-7.936,0.406-11.589,0.635-13.314
					c1.588-0.163,5.432-0.421,13.77-0.421c8.402,0,12.22,0.261,13.769,0.419c0.229,1.71,0.63,5.274,0.63,12.788
					c0,8.519-0.396,12.665-0.62,14.34c-1.24,0.14-3.967,0.345-9.521,0.418c-0.499,0-0.906,0.406-0.906,0.906v1.827
					c0,0.5,0.408,0.967,0.906,0.967c8.714-0.113,10.947-0.563,11.369-0.668c0.678-0.186,1.239-0.687,1.501-1.342
					c0.252-0.635,0.972-5.022,0.972-16.444C31.86,204.32,31.16,199.953,30.927,199.359z"/>
			</g>
		</g>
		<rect x="-6.409" y="195.773" fill="none" width="40.334" height="40.333"/>
	</g>
	<g id="icon-newMessage-inactive">
		<g>
			<g>
				<g opacity="0.4" enable-background="new    ">
					
						<line fill="none" stroke="#000000" stroke-width="2" stroke-linecap="round" x1="199.94" y1="198.993" x2="199.94" y2="208.12"/>
					
						<line fill="none" stroke="#000000" stroke-width="2" stroke-linecap="round" x1="204.505" y1="203.557" x2="195.379" y2="203.557"/>
				</g>
				
					<line fill="none" stroke="#D6D6D6" stroke-width="2" stroke-linecap="round" stroke-linejoin="round" x1="199.94" y1="197.827" x2="199.94" y2="206.954"/>
				
					<line fill="none" stroke="#D6D6D6" stroke-width="2" stroke-linecap="round" stroke-linejoin="round" x1="204.505" y1="202.391" x2="195.379" y2="202.391"/>
			</g>
			<g>
				<path opacity="0.15" fill="#ABABAB" enable-background="new    " d="M186.062,206.456c-6.865-0.934-13.056,2.773-13.802,8.264
					c-0.745,5.488,4.231,10.709,11.1,11.641c1.28,0.174,1.975,0.914,2.332,1.504c0.558,0.918,0.644,1.965,0.557,2.98
					c1.404-1.531,3.316-3.5,5.809-5.41c2.873-2.209,4.785-4.947,5.109-7.332C197.911,212.612,192.927,207.387,186.062,206.456
					L186.062,206.456z"/>
				<path opacity="0.4" enable-background="new    " d="M194.27,225.985c-2.413,2.121-4.066,3.732-5.313,5.18
					c-1.298,1.504-2.764,3.148-3.893,2.799c-1.222-0.379-0.69-2.357-0.629-3.652c0.085-1.832-0.156-1.826-0.326-1.826
					c-5.357,0-10.227-1.926-13.36-5.389c-1.711-1.893-2.333-4.018-2.304-6.143c0.094-6.574,7.003-11.928,15.612-11.928
					c8.606,0.004,15.608,5.355,15.608,11.928c0,1.93-0.799,4.354-2.144,5.99C196.369,224.346,195.103,225.254,194.27,225.985z
					 M196.159,217.209c0-4.396-5.919-7.859-12.105-7.859c-6.187,0-11.22,3.58-11.22,7.979c0,1.068,0.289,2.469,0.891,3.467
					l0.104,0.17c1.744,3.621,6.659,5.363,10.876,5.363c0.596,0,1.092,0.145,1.438,0.514c0.655,0.703,0.586,1.113,0.513,2.148
					c-0.029,0.41-0.137,1.232-0.24,1.643c0.617-0.545,1.273-1.398,1.679-1.918c1.075-1.373,2.418-2.518,4.657-4.484
					c0.659-0.58,1.673-1.512,2.375-2.674C196.153,219.858,196.159,218.368,196.159,217.209z"/>
				<path fill="#D6D6D6" d="M194.27,224.446c-2.413,2.123-4.066,3.734-5.313,5.182c-1.298,1.502-2.764,3.148-3.893,2.799
					c-1.222-0.379-0.69-2.357-0.629-3.652c0.085-1.832-0.156-1.826-0.326-1.826c-5.357,0-10.227-1.926-13.36-5.389
					c-1.711-1.893-2.333-4.02-2.304-6.143c0.094-6.574,7.003-11.928,15.612-11.928c8.606,0.004,15.608,5.355,15.608,11.928
					c0,1.93-0.799,4.354-2.144,5.988C196.369,222.807,195.103,223.717,194.27,224.446z M196.461,215.532
					c0-4.506-6.072-8.051-12.418-8.055c-6.347,0-11.76,3.668-11.76,8.174c0,1.094,0.469,2.67,1.188,3.826
					c2.008,3.23,7.018,5.316,11.235,5.316c0.596,0,1.092,0.141,1.438,0.512c0.655,0.701,0.586,1.113,0.513,2.148
					c-0.029,0.41-0.137,1.232-0.24,1.645c0.617-0.549,1.273-1.4,1.679-1.918c1.075-1.375,2.418-2.52,4.657-4.488
					c0.659-0.58,1.673-1.508,2.375-2.67C196.153,218.323,196.461,216.715,196.461,215.532z"/>
			</g>
		</g>
		<rect x="165.222" y="194.774" fill="none" width="42.333" height="42.332"/>
	</g>
	<g id="icon-newMessage-pressed">
		<g>
			<g>
				<g opacity="0.4" enable-background="new    ">
					
						<line fill="none" stroke="#000000" stroke-width="2" stroke-linecap="round" x1="199.94" y1="91.75" x2="199.94" y2="100.877"/>
					
						<line fill="none" stroke="#000000" stroke-width="2" stroke-linecap="round" x1="204.505" y1="96.315" x2="195.379" y2="96.315"/>
				</g>
				
					<line fill="none" stroke="#FFFFFF" stroke-width="2" stroke-linecap="round" stroke-linejoin="round" x1="199.94" y1="90.584" x2="199.94" y2="99.711"/>
				
					<line fill="none" stroke="#FFFFFF" stroke-width="2" stroke-linecap="round" stroke-linejoin="round" x1="204.505" y1="95.149" x2="195.379" y2="95.149"/>
			</g>
			<g>
				<path opacity="0.15" fill="#ABABAB" enable-background="new    " d="M186.062,99.213c-6.865-0.934-13.056,2.773-13.802,8.265
					c-0.745,5.488,4.231,10.708,11.1,11.641c1.28,0.174,1.975,0.913,2.332,1.504c0.558,0.917,0.644,1.964,0.557,2.979
					c1.404-1.53,3.316-3.499,5.809-5.409c2.873-2.209,4.785-4.947,5.109-7.332C197.911,105.37,192.927,100.146,186.062,99.213
					L186.062,99.213z"/>
				<path opacity="0.4" enable-background="new    " d="M194.27,118.743c-2.413,2.122-4.066,3.733-5.313,5.18
					c-1.298,1.505-2.764,3.149-3.893,2.8c-1.222-0.379-0.69-2.357-0.629-3.653c0.085-1.832-0.156-1.825-0.326-1.825
					c-5.357,0-10.227-1.926-13.36-5.389c-1.711-1.894-2.333-4.019-2.304-6.144c0.094-6.574,7.003-11.928,15.612-11.928
					c8.606,0.005,15.608,5.355,15.608,11.929c0,1.93-0.799,4.354-2.144,5.989C196.369,117.104,195.103,118.012,194.27,118.743z
					 M196.159,109.968c0-4.397-5.919-7.859-12.105-7.859c-6.187,0-11.22,3.579-11.22,7.978c0,1.069,0.289,2.47,0.891,3.467
					l0.104,0.171c1.744,3.62,6.659,5.363,10.876,5.363c0.596,0,1.092,0.144,1.438,0.514c0.655,0.702,0.586,1.112,0.513,2.147
					c-0.029,0.411-0.137,1.232-0.24,1.644c0.617-0.546,1.273-1.398,1.679-1.918c1.075-1.374,2.418-2.518,4.657-4.485
					c0.659-0.579,1.673-1.511,2.375-2.673C196.153,112.617,196.159,111.126,196.159,109.968z"/>
				<path fill="#FFFFFF" d="M194.27,117.205c-2.413,2.122-4.066,3.734-5.313,5.182c-1.298,1.502-2.764,3.148-3.893,2.798
					c-1.222-0.378-0.69-2.356-0.629-3.651c0.085-1.833-0.156-1.826-0.326-1.826c-5.357,0-10.227-1.926-13.36-5.39
					c-1.711-1.892-2.333-4.019-2.304-6.143c0.094-6.574,7.003-11.927,15.612-11.927c8.606,0.003,15.608,5.354,15.608,11.928
					c0,1.93-0.799,4.354-2.144,5.988C196.369,115.566,195.103,116.475,194.27,117.205z M196.461,108.29
					c0-4.506-6.072-8.051-12.418-8.054c-6.347,0-11.76,3.667-11.76,8.173c0,1.094,0.469,2.671,1.188,3.827
					c2.008,3.23,7.018,5.316,11.235,5.316c0.596,0,1.092,0.14,1.438,0.511c0.655,0.702,0.586,1.113,0.513,2.148
					c-0.029,0.41-0.137,1.233-0.24,1.645c0.617-0.548,1.273-1.4,1.679-1.918c1.075-1.375,2.418-2.52,4.657-4.488
					c0.659-0.579,1.673-1.508,2.375-2.67C196.153,111.082,196.461,109.473,196.461,108.29z"/>
			</g>
		</g>
		<rect x="165.222" y="87.532" fill="none" width="42.333" height="42.332"/>
	</g>
	<g id="icon-messages-pressed">
		<g>
			
				<path opacity="0.4" fill="none" stroke="#000000" stroke-width="2" stroke-linecap="round" stroke-linejoin="round" enable-background="new    " d="
				M365.672,99.091c0,1.396,1.004,2.818,2.158,3.832c2.307,2.026,3.098,3.96,3.588,3.667c0.781-0.465-0.371-2.611,0.859-2.611
				c3.646,0,6.604-2.188,6.604-4.888c0-2.702-2.959-4.891-6.604-4.891C368.629,94.201,365.672,96.389,365.672,99.091z"/>
			<path opacity="0.15" fill="#ABABAB" enable-background="new    " d="M372.74,92.893c3.64,0,6.601,2.25,6.601,5.017
				c0,2.765-2.959,5.013-6.601,5.013c-0.678,0-1.092,0.319-1.319,0.588c-0.355,0.416-0.474,0.928-0.5,1.437
				c-0.623-0.853-1.479-1.953-2.642-3.066c-1.34-1.285-2.141-2.77-2.141-3.97C366.139,95.143,369.102,92.893,372.74,92.893
				L372.74,92.893z"/>
			<path fill="none" stroke="#FFFFFF" stroke-width="2" stroke-linecap="round" stroke-linejoin="round" d="M365.672,97.716
				c0,1.396,1.004,2.818,2.158,3.832c2.307,2.026,3.098,3.96,3.588,3.667c0.781-0.465-0.371-2.611,0.859-2.611
				c3.646,0,6.604-2.188,6.604-4.888c0-2.702-2.959-4.891-6.604-4.891C368.629,92.826,365.672,95.014,365.672,97.716z"/>
			<path opacity="0.15" fill="#ABABAB" enable-background="new    " d="M357.332,101.67c-5.953-0.808-11.323,2.407-11.971,7.169
				c-0.646,4.759,3.67,9.287,9.627,10.095c1.11,0.151,1.713,0.792,2.022,1.306c0.483,0.795,0.558,1.701,0.483,2.583
				c1.217-1.328,2.875-3.034,5.037-4.691c2.491-1.915,4.149-4.291,4.43-6.359C367.609,107.01,363.287,102.479,357.332,101.67
				L357.332,101.67z"/>
			<path opacity="0.4" enable-background="new    " d="M364.451,118.608c-2.092,1.84-3.526,3.238-4.607,4.492
				c-1.126,1.305-2.396,2.732-3.376,2.428c-1.06-0.328-0.599-2.044-0.546-3.167c0.074-1.59-0.135-1.584-0.283-1.584
				c-4.646,0-8.869-1.671-11.587-4.674c-1.483-1.641-2.024-3.485-1.998-5.328c0.081-5.701,6.073-10.344,13.539-10.344
				c7.465,0.003,13.537,4.645,13.537,10.346c0,1.673-0.693,3.775-1.859,5.193C366.271,117.186,365.174,117.974,364.451,118.608z
				 M366.09,111c0-3.815-5.133-6.817-10.498-6.818c-5.366,0-9.73,3.104-9.73,6.919c0,0.927,0.25,2.144,0.772,3.008l0.09,0.148
				c1.513,3.139,5.774,4.651,9.433,4.651c0.517,0,0.946,0.124,1.246,0.444c0.568,0.609,0.51,0.965,0.445,1.863
				c-0.025,0.355-0.119,1.069-0.208,1.426c0.535-0.475,1.104-1.214,1.456-1.664c0.932-1.191,2.098-2.184,4.039-3.891
				c0.572-0.502,1.451-1.31,2.061-2.317C366.084,113.296,366.09,112.002,366.09,111z"/>
			<path fill="#FFFFFF" d="M364.451,117.275c-2.092,1.84-3.526,3.238-4.607,4.492c-1.126,1.305-2.396,2.732-3.376,2.428
				c-1.06-0.328-0.599-2.044-0.546-3.167c0.074-1.59-0.135-1.584-0.283-1.584c-4.646,0-8.869-1.671-11.587-4.674
				c-1.483-1.641-2.024-3.485-1.998-5.328c0.081-5.701,6.073-10.344,13.539-10.344c7.465,0.003,13.537,4.645,13.537,10.346
				c0,1.673-0.693,3.775-1.859,5.193C366.271,115.853,365.174,116.641,364.451,117.275z M366.09,109.667
				c0-3.815-5.133-6.817-10.498-6.818c-5.366,0-9.73,3.104-9.73,6.919c0,0.927,0.25,2.144,0.772,3.008l0.09,0.148
				c1.513,3.139,5.774,4.651,9.433,4.651c0.517,0,0.946,0.124,1.246,0.444c0.568,0.609,0.51,0.965,0.445,1.863
				c-0.025,0.355-0.119,1.069-0.208,1.426c0.535-0.475,1.104-1.214,1.456-1.664c0.932-1.191,2.098-2.184,4.039-3.891
				c0.572-0.502,1.451-1.31,2.061-2.317C366.084,111.963,366.09,110.669,366.09,109.667z"/>
		</g>
		<rect x="339.529" y="87.532" fill="none" width="42.334" height="42.332"/>
	</g>
	<g id="icon-messages-inactive">
		<g>
			
				<path opacity="0.4" fill="none" stroke="#000000" stroke-width="2" stroke-linecap="round" stroke-linejoin="round" enable-background="new    " d="
				M365.672,206.333c0,1.396,1.004,2.818,2.158,3.832c2.307,2.027,3.098,3.961,3.588,3.668c0.781-0.465-0.371-2.611,0.859-2.611
				c3.646,0,6.604-2.188,6.604-4.889s-2.959-4.891-6.604-4.891C368.629,201.442,365.672,203.631,365.672,206.333z"/>
			<path opacity="0.15" fill="#ABABAB" enable-background="new    " d="M372.74,200.135c3.64,0,6.601,2.25,6.601,5.016
				s-2.959,5.014-6.601,5.014c-0.678,0-1.092,0.318-1.319,0.588c-0.355,0.416-0.474,0.928-0.5,1.436
				c-0.623-0.852-1.479-1.953-2.642-3.066c-1.34-1.285-2.141-2.77-2.141-3.969C366.139,202.385,369.102,200.135,372.74,200.135
				L372.74,200.135z"/>
			<path fill="none" stroke="#D6D6D6" stroke-width="2" stroke-linecap="round" stroke-linejoin="round" d="M365.672,204.958
				c0,1.396,1.004,2.818,2.158,3.832c2.307,2.027,3.098,3.961,3.588,3.668c0.781-0.465-0.371-2.611,0.859-2.611
				c3.646,0,6.604-2.188,6.604-4.889s-2.959-4.891-6.604-4.891C368.629,200.067,365.672,202.256,365.672,204.958z"/>
			<path opacity="0.15" fill="#ABABAB" enable-background="new    " d="M357.332,208.913c-5.953-0.809-11.323,2.406-11.971,7.168
				c-0.646,4.76,3.67,9.287,9.627,10.096c1.11,0.15,1.713,0.791,2.022,1.305c0.483,0.795,0.558,1.701,0.483,2.584
				c1.217-1.328,2.875-3.035,5.037-4.691c2.491-1.916,4.149-4.291,4.43-6.359C367.609,214.252,363.287,209.721,357.332,208.913
				L357.332,208.913z"/>
			<path opacity="0.4" enable-background="new    " d="M364.451,225.85c-2.092,1.84-3.526,3.238-4.607,4.492
				c-1.126,1.305-2.396,2.732-3.376,2.428c-1.06-0.328-0.599-2.045-0.546-3.168c0.074-1.59-0.135-1.584-0.283-1.584
				c-4.646,0-8.869-1.67-11.587-4.674c-1.483-1.641-2.024-3.484-1.998-5.328c0.081-5.701,6.073-10.344,13.539-10.344
				c7.465,0.004,13.537,4.645,13.537,10.346c0,1.674-0.693,3.775-1.859,5.193C366.271,224.428,365.174,225.215,364.451,225.85z
				 M366.09,218.241c0-3.814-5.133-6.816-10.498-6.818c-5.366,0-9.73,3.105-9.73,6.92c0,0.926,0.25,2.143,0.772,3.008l0.09,0.148
				c1.513,3.139,5.774,4.65,9.433,4.65c0.517,0,0.946,0.125,1.246,0.445c0.568,0.609,0.51,0.965,0.445,1.863
				c-0.025,0.355-0.119,1.068-0.208,1.426c0.535-0.475,1.104-1.215,1.456-1.664c0.932-1.191,2.098-2.184,4.039-3.891
				c0.572-0.502,1.451-1.311,2.061-2.318C366.084,220.538,366.09,219.245,366.09,218.241z"/>
			<path fill="#D6D6D6" d="M364.451,224.516c-2.092,1.84-3.526,3.238-4.607,4.492c-1.126,1.305-2.396,2.732-3.376,2.428
				c-1.06-0.328-0.599-2.043-0.546-3.166c0.074-1.59-0.135-1.584-0.283-1.584c-4.646,0-8.869-1.672-11.587-4.674
				c-1.483-1.641-2.024-3.486-1.998-5.328c0.081-5.701,6.073-10.344,13.539-10.344c7.465,0.002,13.537,4.645,13.537,10.346
				c0,1.672-0.693,3.775-1.859,5.193C366.271,223.094,365.174,223.883,364.451,224.516z M366.09,216.909
				c0-3.816-5.133-6.818-10.498-6.818c-5.366,0-9.73,3.104-9.73,6.918c0,0.928,0.25,2.145,0.772,3.008l0.09,0.148
				c1.513,3.139,5.774,4.652,9.433,4.652c0.517,0,0.946,0.123,1.246,0.443c0.568,0.609,0.51,0.965,0.445,1.863
				c-0.025,0.355-0.119,1.07-0.208,1.426c0.535-0.475,1.104-1.213,1.456-1.664c0.932-1.191,2.098-2.184,4.039-3.891
				c0.572-0.502,1.451-1.309,2.061-2.316C366.084,219.206,366.09,217.911,366.09,216.909z"/>
		</g>
		<rect x="339.529" y="194.774" fill="none" width="42.334" height="42.332"/>
	</g>
	<g id="icon-return-pressed">
		<g>
			<path opacity="0.4" enable-background="new    " d="M519.085,99.633l-10.73-0.035l5.932-6.08c0.434-0.444,0.424-1.152-0.02-1.584
				c-0.443-0.432-1.152-0.423-1.582,0.019l-7.818,8.014c-0.105,0.106-0.189,0.23-0.242,0.371c-0.107,0.274-0.105,0.581,0.01,0.854
				c0.061,0.14,0.145,0.261,0.248,0.364l8.016,7.819c0.223,0.215,0.51,0.322,0.797,0.318s0.568-0.117,0.787-0.34
				c0.434-0.442,0.422-1.15-0.021-1.583l-6.08-5.933l10.73,0.033c6.275,0.084,11.396,5.095,11.418,11.372
				c0.018,6.116-4.926,11.116-11.029,11.192c-0.033,0-0.066-0.004-0.102,0c-0.613,0.01-1.109,0.512-1.105,1.125
				c0.002,0.621,0.506,1.119,1.125,1.115c0.035,0,0.07,0,0.109-0.002c7.332-0.092,13.26-6.097,13.238-13.438
				C532.745,105.748,526.632,99.733,519.085,99.633z"/>
			<path fill="#FFFFFF" d="M519.085,98.738l-10.73-0.036l5.932-6.08c0.434-0.444,0.424-1.152-0.02-1.584
				c-0.445-0.432-1.152-0.423-1.582,0.019l-7.818,8.015c-0.105,0.106-0.189,0.23-0.242,0.371c-0.107,0.274-0.104,0.58,0.01,0.853
				c0.061,0.14,0.145,0.261,0.248,0.364l8.016,7.82c0.223,0.215,0.51,0.323,0.797,0.319c0.287-0.004,0.568-0.118,0.787-0.339
				c0.434-0.443,0.422-1.151-0.021-1.583l-6.08-5.933l10.73,0.033c6.275,0.084,11.396,5.095,11.418,11.372
				c0.018,6.117-4.926,11.117-11.029,11.193c-0.033,0-0.066-0.005-0.102,0c-0.613,0.01-1.109,0.512-1.105,1.127
				c0.002,0.618,0.506,1.117,1.125,1.114c0.035,0,0.07,0,0.109-0.002c7.332-0.093,13.26-6.097,13.238-13.438
				C532.745,104.853,526.632,98.837,519.085,98.738z"/>
		</g>
		<rect x="497.487" y="87.531" fill="none" width="42.334" height="42.333"/>
	</g>
	<g id="icon-return-inactive">
		<g>
			<path opacity="0.4" enable-background="new    " d="M519.085,206.875l-10.73-0.035l5.932-6.08
				c0.434-0.444,0.424-1.152-0.02-1.584s-1.152-0.424-1.582,0.019l-7.818,8.015c-0.105,0.105-0.189,0.229-0.242,0.371
				c-0.107,0.273-0.105,0.58,0.01,0.854c0.061,0.14,0.145,0.261,0.248,0.363l8.016,7.82c0.223,0.215,0.51,0.321,0.797,0.317
				c0.287-0.005,0.568-0.117,0.787-0.341c0.434-0.441,0.422-1.149-0.021-1.582l-6.08-5.934l10.73,0.033
				c6.275,0.084,11.396,5.096,11.418,11.372c0.018,6.116-4.926,11.116-11.029,11.192c-0.033,0-0.066-0.004-0.102,0
				c-0.613,0.01-1.109,0.512-1.105,1.125c0.002,0.621,0.506,1.119,1.125,1.115c0.035,0,0.07,0,0.109-0.002
				c7.332-0.093,13.26-6.098,13.238-13.438C532.745,212.989,526.632,206.975,519.085,206.875z"/>
			<path fill="#D6D6D6" d="M519.085,205.98l-10.73-0.036l5.932-6.08c0.434-0.443,0.424-1.152-0.02-1.584
				c-0.445-0.432-1.152-0.423-1.582,0.02l-7.818,8.015c-0.105,0.106-0.189,0.229-0.242,0.371c-0.107,0.274-0.104,0.58,0.01,0.853
				c0.061,0.141,0.145,0.262,0.248,0.364l8.016,7.819c0.223,0.216,0.51,0.324,0.797,0.32s0.568-0.119,0.787-0.34
				c0.434-0.443,0.422-1.15-0.021-1.582l-6.08-5.934l10.73,0.033c6.275,0.084,11.396,5.095,11.418,11.371
				c0.018,6.117-4.926,11.117-11.029,11.193c-0.033,0-0.066-0.005-0.102,0c-0.613,0.01-1.109,0.512-1.105,1.127
				c0.002,0.618,0.506,1.117,1.125,1.114c0.035,0,0.07,0,0.109-0.002c7.332-0.093,13.26-6.097,13.238-13.438
				C532.745,212.094,526.632,206.079,519.085,205.98z"/>
		</g>
		<rect x="497.487" y="194.773" fill="none" width="42.334" height="42.333"/>
	</g>
	<g id="icon-x-pressed">
		<g>
			
				<line fill="none" stroke="#FFFFFF" stroke-width="1.5" stroke-linecap="round" x1="182.865" y1="335.174" x2="189.912" y2="342.221"/>
			
				<line fill="none" stroke="#FFFFFF" stroke-width="1.5" stroke-linecap="round" x1="189.912" y1="335.174" x2="182.865" y2="342.221"/>
		</g>
		<rect x="165.222" y="317.532" fill="none" width="42.333" height="42.332"/>
	</g>
	<g id="icon-x-inactive">
		<g>
			
				<line fill="none" stroke="#D6D6D6" stroke-width="1.5" stroke-linecap="round" x1="182.865" y1="426.416" x2="189.912" y2="433.462"/>
			
				<line fill="none" stroke="#D6D6D6" stroke-width="1.5" stroke-linecap="round" x1="189.912" y1="426.416" x2="182.865" y2="433.462"/>
		</g>
		<rect x="165.222" y="408.773" fill="none" width="42.333" height="42.333"/>
	</g>
	<g id="icon-droparrow-pressed">
		<g>
			<path fill="#FFFFFF" d="M354.622,336.497c-0.293-0.293-0.293-0.77,0-1.063s0.77-0.293,1.063,0l4.884,4.883l5.143-5.143
				c0.293-0.294,0.768-0.294,1.063,0c0.293,0.293,0.293,0.768,0,1.061l-6.204,6.205L354.622,336.497z"/>
		</g>
		<rect x="339.53" y="317.532" fill="none" width="42.333" height="42.332"/>
	</g>
	<g id="icon-droparrow-inactive">
		<g>
			<path fill="#D6D6D6" d="M354.622,427.737c-0.293-0.293-0.293-0.769,0-1.062s0.77-0.293,1.063,0l4.884,4.883l5.143-5.143
				c0.295-0.295,0.77-0.295,1.063,0c0.293,0.293,0.293,0.768,0,1.061l-6.204,6.205L354.622,427.737z"/>
		</g>
		<rect x="339.53" y="408.773" fill="none" width="42.333" height="42.333"/>
	</g>
</g>
<g id="Text-icon-names">
	<text transform="matrix(1 0 0 1 149.6689 454.1665)" fill="#ABC5CE" font-family="'MyriadPro-Regular'" font-size="12">icon-x-inactive</text>
	<text transform="matrix(1 0 0 1 -35.021 255.1665)" fill="#ABC5CE" font-family="'MyriadPro-Regular'" font-size="12">icon-home-inactive</text>
	<text transform="matrix(1 0 0 1 -34.8711 152.1665)" fill="#ABC5CE" font-family="'MyriadPro-Regular'" font-size="12">icon-home-pressed</text>
	<text transform="matrix(1 0 0 1 119.7715 152.1665)" fill="#ABC5CE" font-family="'MyriadPro-Regular'" font-size="12">icon-newMessage-pressed</text>
	<text transform="matrix(1 0 0 1 302.479 152.1665)" fill="#ABC5CE" font-family="'MyriadPro-Regular'" font-size="12">icon-messages-pressed</text>
	<text transform="matrix(1 0 0 1 469.3115 152.1665)" fill="#ABC5CE" font-family="'MyriadPro-Regular'" font-size="12">icon-return-pressed</text>
	<text transform="matrix(1 0 0 1 469.1611 252.1665)" fill="#ABC5CE" font-family="'MyriadPro-Regular'" font-size="12">icon-return-inactive</text>
	<text transform="matrix(1 0 0 1 302.3291 253.1665)" fill="#ABC5CE" font-family="'MyriadPro-Regular'" font-size="12">icon-messages-inactive</text>
	<text transform="matrix(1 0 0 1 119.6216 254.1665)" fill="#ABC5CE" font-family="'MyriadPro-Regular'" font-size="12">icon-newMessage-inactive</text>
	<text transform="matrix(1 0 0 1 494.7266 370.1665)" fill="#ABC5CE" font-family="'MyriadPro-Regular'" font-size="12">icon-alert</text>
	<text transform="matrix(1 0 0 1 300.3428 371.1665)" fill="#ABC5CE" font-family="'MyriadPro-Regular'" font-size="12">icon-droparrow-pressed</text>
	<text transform="matrix(1 0 0 1 149.8188 372.1665)" fill="#ABC5CE" font-family="'MyriadPro-Regular'" font-size="12">icon-x-pressed</text>
	<text transform="matrix(1 0 0 1 300.1934 453.1665)" fill="#ABC5CE" font-family="'MyriadPro-Regular'" font-size="12">icon-droparrow-inactive</text>
</g>
<text transform="matrix(1 0 0 1 -70.3301 35.7285)" fill="#FFFFFF" font-family="'Verdana'" font-size="20.7447">DUI SMS ICONS</text>
</svg>
